<?xml version="1.0" encoding="utf-8" standalone="no"?>
<!DOCTYPE svg PUBLIC "-//W3C//DTD SVG 1.1//EN"
  "http://www.w3.org/Graphics/SVG/1.1/DTD/svg11.dtd">
<svg xmlns:xlink="http://www.w3.org/1999/xlink" width="864pt" height="432pt" viewBox="0 0 864 432" xmlns="http://www.w3.org/2000/svg" version="1.1">
 <metadata>
  <rdf:RDF xmlns:dc="http://purl.org/dc/elements/1.1/" xmlns:cc="http://creativecommons.org/ns#" xmlns:rdf="http://www.w3.org/1999/02/22-rdf-syntax-ns#">
   <cc:Work>
    <dc:type rdf:resource="http://purl.org/dc/dcmitype/StillImage"/>
    <dc:date>2025-05-21T15:21:43.912415</dc:date>
    <dc:format>image/svg+xml</dc:format>
    <dc:creator>
     <cc:Agent>
      <dc:title>Matplotlib v3.9.2, https://matplotlib.org/</dc:title>
     </cc:Agent>
    </dc:creator>
   </cc:Work>
  </rdf:RDF>
 </metadata>
 <defs>
  <style type="text/css">*{stroke-linejoin: round; stroke-linecap: butt}</style>
 </defs>
 <g id="figure_1">
  <g id="patch_1">
   <path d="M 0 432 
L 864 432 
L 864 0 
L 0 0 
z
" style="fill: #ffffff"/>
  </g>
  <g id="axes_1">
   <g id="patch_2">
    <path d="M 108 384.48 
L 777.6 384.48 
L 777.6 51.84 
L 108 51.84 
z
" style="fill: #ffffff"/>
   </g>
   <g id="matplotlib.axis_1">
    <g id="xtick_1">
     <g id="line2d_1">
      <path d="M 138.436364 384.48 
L 138.436364 51.84 
" clip-path="url(#p50526b33eb)" style="fill: none; stroke: #b0b0b0; stroke-width: 0.8; stroke-linecap: square"/>
     </g>
     <g id="line2d_2">
      <defs>
       <path id="m450348559d" d="M 0 0 
L 0 3.5 
" style="stroke: #000000; stroke-width: 0.8"/>
      </defs>
      <g>
       <use xlink:href="#m450348559d" x="138.436364" y="384.48" style="stroke: #000000; stroke-width: 0.8"/>
      </g>
     </g>
     <g id="text_1">
      <!-- 0 -->
      <g transform="translate(135.255114 399.078438) scale(0.1 -0.1)">
       <defs>
        <path id="DejaVuSans-30" d="M 2034 4250 
Q 1547 4250 1301 3770 
Q 1056 3291 1056 2328 
Q 1056 1369 1301 889 
Q 1547 409 2034 409 
Q 2525 409 2770 889 
Q 3016 1369 3016 2328 
Q 3016 3291 2770 3770 
Q 2525 4250 2034 4250 
z
M 2034 4750 
Q 2819 4750 3233 4129 
Q 3647 3509 3647 2328 
Q 3647 1150 3233 529 
Q 2819 -91 2034 -91 
Q 1250 -91 836 529 
Q 422 1150 422 2328 
Q 422 3509 836 4129 
Q 1250 4750 2034 4750 
z
" transform="scale(0.015625)"/>
       </defs>
       <use xlink:href="#DejaVuSans-30"/>
      </g>
     </g>
    </g>
    <g id="xtick_2">
     <g id="line2d_3">
      <path d="M 242.849275 384.48 
L 242.849275 51.84 
" clip-path="url(#p50526b33eb)" style="fill: none; stroke: #b0b0b0; stroke-width: 0.8; stroke-linecap: square"/>
     </g>
     <g id="line2d_4">
      <g>
       <use xlink:href="#m450348559d" x="242.849275" y="384.48" style="stroke: #000000; stroke-width: 0.8"/>
      </g>
     </g>
     <g id="text_2">
      <!-- 2000 -->
      <g transform="translate(230.124275 399.078438) scale(0.1 -0.1)">
       <defs>
        <path id="DejaVuSans-32" d="M 1228 531 
L 3431 531 
L 3431 0 
L 469 0 
L 469 531 
Q 828 903 1448 1529 
Q 2069 2156 2228 2338 
Q 2531 2678 2651 2914 
Q 2772 3150 2772 3378 
Q 2772 3750 2511 3984 
Q 2250 4219 1831 4219 
Q 1534 4219 1204 4116 
Q 875 4013 500 3803 
L 500 4441 
Q 881 4594 1212 4672 
Q 1544 4750 1819 4750 
Q 2544 4750 2975 4387 
Q 3406 4025 3406 3419 
Q 3406 3131 3298 2873 
Q 3191 2616 2906 2266 
Q 2828 2175 2409 1742 
Q 1991 1309 1228 531 
z
" transform="scale(0.015625)"/>
       </defs>
       <use xlink:href="#DejaVuSans-32"/>
       <use xlink:href="#DejaVuSans-30" x="63.623047"/>
       <use xlink:href="#DejaVuSans-30" x="127.246094"/>
       <use xlink:href="#DejaVuSans-30" x="190.869141"/>
      </g>
     </g>
    </g>
    <g id="xtick_3">
     <g id="line2d_5">
      <path d="M 347.262186 384.48 
L 347.262186 51.84 
" clip-path="url(#p50526b33eb)" style="fill: none; stroke: #b0b0b0; stroke-width: 0.8; stroke-linecap: square"/>
     </g>
     <g id="line2d_6">
      <g>
       <use xlink:href="#m450348559d" x="347.262186" y="384.48" style="stroke: #000000; stroke-width: 0.8"/>
      </g>
     </g>
     <g id="text_3">
      <!-- 4000 -->
      <g transform="translate(334.537186 399.078438) scale(0.1 -0.1)">
       <defs>
        <path id="DejaVuSans-34" d="M 2419 4116 
L 825 1625 
L 2419 1625 
L 2419 4116 
z
M 2253 4666 
L 3047 4666 
L 3047 1625 
L 3713 1625 
L 3713 1100 
L 3047 1100 
L 3047 0 
L 2419 0 
L 2419 1100 
L 313 1100 
L 313 1709 
L 2253 4666 
z
" transform="scale(0.015625)"/>
       </defs>
       <use xlink:href="#DejaVuSans-34"/>
       <use xlink:href="#DejaVuSans-30" x="63.623047"/>
       <use xlink:href="#DejaVuSans-30" x="127.246094"/>
       <use xlink:href="#DejaVuSans-30" x="190.869141"/>
      </g>
     </g>
    </g>
    <g id="xtick_4">
     <g id="line2d_7">
      <path d="M 451.675097 384.48 
L 451.675097 51.84 
" clip-path="url(#p50526b33eb)" style="fill: none; stroke: #b0b0b0; stroke-width: 0.8; stroke-linecap: square"/>
     </g>
     <g id="line2d_8">
      <g>
       <use xlink:href="#m450348559d" x="451.675097" y="384.48" style="stroke: #000000; stroke-width: 0.8"/>
      </g>
     </g>
     <g id="text_4">
      <!-- 6000 -->
      <g transform="translate(438.950097 399.078438) scale(0.1 -0.1)">
       <defs>
        <path id="DejaVuSans-36" d="M 2113 2584 
Q 1688 2584 1439 2293 
Q 1191 2003 1191 1497 
Q 1191 994 1439 701 
Q 1688 409 2113 409 
Q 2538 409 2786 701 
Q 3034 994 3034 1497 
Q 3034 2003 2786 2293 
Q 2538 2584 2113 2584 
z
M 3366 4563 
L 3366 3988 
Q 3128 4100 2886 4159 
Q 2644 4219 2406 4219 
Q 1781 4219 1451 3797 
Q 1122 3375 1075 2522 
Q 1259 2794 1537 2939 
Q 1816 3084 2150 3084 
Q 2853 3084 3261 2657 
Q 3669 2231 3669 1497 
Q 3669 778 3244 343 
Q 2819 -91 2113 -91 
Q 1303 -91 875 529 
Q 447 1150 447 2328 
Q 447 3434 972 4092 
Q 1497 4750 2381 4750 
Q 2619 4750 2861 4703 
Q 3103 4656 3366 4563 
z
" transform="scale(0.015625)"/>
       </defs>
       <use xlink:href="#DejaVuSans-36"/>
       <use xlink:href="#DejaVuSans-30" x="63.623047"/>
       <use xlink:href="#DejaVuSans-30" x="127.246094"/>
       <use xlink:href="#DejaVuSans-30" x="190.869141"/>
      </g>
     </g>
    </g>
    <g id="xtick_5">
     <g id="line2d_9">
      <path d="M 556.088009 384.48 
L 556.088009 51.84 
" clip-path="url(#p50526b33eb)" style="fill: none; stroke: #b0b0b0; stroke-width: 0.8; stroke-linecap: square"/>
     </g>
     <g id="line2d_10">
      <g>
       <use xlink:href="#m450348559d" x="556.088009" y="384.48" style="stroke: #000000; stroke-width: 0.8"/>
      </g>
     </g>
     <g id="text_5">
      <!-- 8000 -->
      <g transform="translate(543.363009 399.078438) scale(0.1 -0.1)">
       <defs>
        <path id="DejaVuSans-38" d="M 2034 2216 
Q 1584 2216 1326 1975 
Q 1069 1734 1069 1313 
Q 1069 891 1326 650 
Q 1584 409 2034 409 
Q 2484 409 2743 651 
Q 3003 894 3003 1313 
Q 3003 1734 2745 1975 
Q 2488 2216 2034 2216 
z
M 1403 2484 
Q 997 2584 770 2862 
Q 544 3141 544 3541 
Q 544 4100 942 4425 
Q 1341 4750 2034 4750 
Q 2731 4750 3128 4425 
Q 3525 4100 3525 3541 
Q 3525 3141 3298 2862 
Q 3072 2584 2669 2484 
Q 3125 2378 3379 2068 
Q 3634 1759 3634 1313 
Q 3634 634 3220 271 
Q 2806 -91 2034 -91 
Q 1263 -91 848 271 
Q 434 634 434 1313 
Q 434 1759 690 2068 
Q 947 2378 1403 2484 
z
M 1172 3481 
Q 1172 3119 1398 2916 
Q 1625 2713 2034 2713 
Q 2441 2713 2670 2916 
Q 2900 3119 2900 3481 
Q 2900 3844 2670 4047 
Q 2441 4250 2034 4250 
Q 1625 4250 1398 4047 
Q 1172 3844 1172 3481 
z
" transform="scale(0.015625)"/>
       </defs>
       <use xlink:href="#DejaVuSans-38"/>
       <use xlink:href="#DejaVuSans-30" x="63.623047"/>
       <use xlink:href="#DejaVuSans-30" x="127.246094"/>
       <use xlink:href="#DejaVuSans-30" x="190.869141"/>
      </g>
     </g>
    </g>
    <g id="xtick_6">
     <g id="line2d_11">
      <path d="M 660.50092 384.48 
L 660.50092 51.84 
" clip-path="url(#p50526b33eb)" style="fill: none; stroke: #b0b0b0; stroke-width: 0.8; stroke-linecap: square"/>
     </g>
     <g id="line2d_12">
      <g>
       <use xlink:href="#m450348559d" x="660.50092" y="384.48" style="stroke: #000000; stroke-width: 0.8"/>
      </g>
     </g>
     <g id="text_6">
      <!-- 10000 -->
      <g transform="translate(644.59467 399.078438) scale(0.1 -0.1)">
       <defs>
        <path id="DejaVuSans-31" d="M 794 531 
L 1825 531 
L 1825 4091 
L 703 3866 
L 703 4441 
L 1819 4666 
L 2450 4666 
L 2450 531 
L 3481 531 
L 3481 0 
L 794 0 
L 794 531 
z
" transform="scale(0.015625)"/>
       </defs>
       <use xlink:href="#DejaVuSans-31"/>
       <use xlink:href="#DejaVuSans-30" x="63.623047"/>
       <use xlink:href="#DejaVuSans-30" x="127.246094"/>
       <use xlink:href="#DejaVuSans-30" x="190.869141"/>
       <use xlink:href="#DejaVuSans-30" x="254.492188"/>
      </g>
     </g>
    </g>
    <g id="xtick_7">
     <g id="line2d_13">
      <path d="M 764.913831 384.48 
L 764.913831 51.84 
" clip-path="url(#p50526b33eb)" style="fill: none; stroke: #b0b0b0; stroke-width: 0.8; stroke-linecap: square"/>
     </g>
     <g id="line2d_14">
      <g>
       <use xlink:href="#m450348559d" x="764.913831" y="384.48" style="stroke: #000000; stroke-width: 0.8"/>
      </g>
     </g>
     <g id="text_7">
      <!-- 12000 -->
      <g transform="translate(749.007581 399.078438) scale(0.1 -0.1)">
       <use xlink:href="#DejaVuSans-31"/>
       <use xlink:href="#DejaVuSans-32" x="63.623047"/>
       <use xlink:href="#DejaVuSans-30" x="127.246094"/>
       <use xlink:href="#DejaVuSans-30" x="190.869141"/>
       <use xlink:href="#DejaVuSans-30" x="254.492188"/>
      </g>
     </g>
    </g>
    <g id="text_8">
     <!-- Sample -->
     <g transform="translate(424.051562 412.756563) scale(0.1 -0.1)">
      <defs>
       <path id="DejaVuSans-53" d="M 3425 4513 
L 3425 3897 
Q 3066 4069 2747 4153 
Q 2428 4238 2131 4238 
Q 1616 4238 1336 4038 
Q 1056 3838 1056 3469 
Q 1056 3159 1242 3001 
Q 1428 2844 1947 2747 
L 2328 2669 
Q 3034 2534 3370 2195 
Q 3706 1856 3706 1288 
Q 3706 609 3251 259 
Q 2797 -91 1919 -91 
Q 1588 -91 1214 -16 
Q 841 59 441 206 
L 441 856 
Q 825 641 1194 531 
Q 1563 422 1919 422 
Q 2459 422 2753 634 
Q 3047 847 3047 1241 
Q 3047 1584 2836 1778 
Q 2625 1972 2144 2069 
L 1759 2144 
Q 1053 2284 737 2584 
Q 422 2884 422 3419 
Q 422 4038 858 4394 
Q 1294 4750 2059 4750 
Q 2388 4750 2728 4690 
Q 3069 4631 3425 4513 
z
" transform="scale(0.015625)"/>
       <path id="DejaVuSans-61" d="M 2194 1759 
Q 1497 1759 1228 1600 
Q 959 1441 959 1056 
Q 959 750 1161 570 
Q 1363 391 1709 391 
Q 2188 391 2477 730 
Q 2766 1069 2766 1631 
L 2766 1759 
L 2194 1759 
z
M 3341 1997 
L 3341 0 
L 2766 0 
L 2766 531 
Q 2569 213 2275 61 
Q 1981 -91 1556 -91 
Q 1019 -91 701 211 
Q 384 513 384 1019 
Q 384 1609 779 1909 
Q 1175 2209 1959 2209 
L 2766 2209 
L 2766 2266 
Q 2766 2663 2505 2880 
Q 2244 3097 1772 3097 
Q 1472 3097 1187 3025 
Q 903 2953 641 2809 
L 641 3341 
Q 956 3463 1253 3523 
Q 1550 3584 1831 3584 
Q 2591 3584 2966 3190 
Q 3341 2797 3341 1997 
z
" transform="scale(0.015625)"/>
       <path id="DejaVuSans-6d" d="M 3328 2828 
Q 3544 3216 3844 3400 
Q 4144 3584 4550 3584 
Q 5097 3584 5394 3201 
Q 5691 2819 5691 2113 
L 5691 0 
L 5113 0 
L 5113 2094 
Q 5113 2597 4934 2840 
Q 4756 3084 4391 3084 
Q 3944 3084 3684 2787 
Q 3425 2491 3425 1978 
L 3425 0 
L 2847 0 
L 2847 2094 
Q 2847 2600 2669 2842 
Q 2491 3084 2119 3084 
Q 1678 3084 1418 2786 
Q 1159 2488 1159 1978 
L 1159 0 
L 581 0 
L 581 3500 
L 1159 3500 
L 1159 2956 
Q 1356 3278 1631 3431 
Q 1906 3584 2284 3584 
Q 2666 3584 2933 3390 
Q 3200 3197 3328 2828 
z
" transform="scale(0.015625)"/>
       <path id="DejaVuSans-70" d="M 1159 525 
L 1159 -1331 
L 581 -1331 
L 581 3500 
L 1159 3500 
L 1159 2969 
Q 1341 3281 1617 3432 
Q 1894 3584 2278 3584 
Q 2916 3584 3314 3078 
Q 3713 2572 3713 1747 
Q 3713 922 3314 415 
Q 2916 -91 2278 -91 
Q 1894 -91 1617 61 
Q 1341 213 1159 525 
z
M 3116 1747 
Q 3116 2381 2855 2742 
Q 2594 3103 2138 3103 
Q 1681 3103 1420 2742 
Q 1159 2381 1159 1747 
Q 1159 1113 1420 752 
Q 1681 391 2138 391 
Q 2594 391 2855 752 
Q 3116 1113 3116 1747 
z
" transform="scale(0.015625)"/>
       <path id="DejaVuSans-6c" d="M 603 4863 
L 1178 4863 
L 1178 0 
L 603 0 
L 603 4863 
z
" transform="scale(0.015625)"/>
       <path id="DejaVuSans-65" d="M 3597 1894 
L 3597 1613 
L 953 1613 
Q 991 1019 1311 708 
Q 1631 397 2203 397 
Q 2534 397 2845 478 
Q 3156 559 3463 722 
L 3463 178 
Q 3153 47 2828 -22 
Q 2503 -91 2169 -91 
Q 1331 -91 842 396 
Q 353 884 353 1716 
Q 353 2575 817 3079 
Q 1281 3584 2069 3584 
Q 2775 3584 3186 3129 
Q 3597 2675 3597 1894 
z
M 3022 2063 
Q 3016 2534 2758 2815 
Q 2500 3097 2075 3097 
Q 1594 3097 1305 2825 
Q 1016 2553 972 2059 
L 3022 2063 
z
" transform="scale(0.015625)"/>
      </defs>
      <use xlink:href="#DejaVuSans-53"/>
      <use xlink:href="#DejaVuSans-61" x="63.476562"/>
      <use xlink:href="#DejaVuSans-6d" x="124.755859"/>
      <use xlink:href="#DejaVuSans-70" x="222.167969"/>
      <use xlink:href="#DejaVuSans-6c" x="285.644531"/>
      <use xlink:href="#DejaVuSans-65" x="313.427734"/>
     </g>
    </g>
   </g>
   <g id="matplotlib.axis_2">
    <g id="ytick_1">
     <g id="line2d_15">
      <path d="M 108 353.293828 
L 777.6 353.293828 
" clip-path="url(#p50526b33eb)" style="fill: none; stroke: #b0b0b0; stroke-width: 0.8; stroke-linecap: square"/>
     </g>
     <g id="line2d_16">
      <defs>
       <path id="mc2b3775aa4" d="M 0 0 
L -3.5 0 
" style="stroke: #000000; stroke-width: 0.8"/>
      </defs>
      <g>
       <use xlink:href="#mc2b3775aa4" x="108" y="353.293828" style="stroke: #000000; stroke-width: 0.8"/>
      </g>
     </g>
     <g id="text_9">
      <!-- −20 -->
      <g transform="translate(79.895313 357.093046) scale(0.1 -0.1)">
       <defs>
        <path id="DejaVuSans-2212" d="M 678 2272 
L 4684 2272 
L 4684 1741 
L 678 1741 
L 678 2272 
z
" transform="scale(0.015625)"/>
       </defs>
       <use xlink:href="#DejaVuSans-2212"/>
       <use xlink:href="#DejaVuSans-32" x="83.789062"/>
       <use xlink:href="#DejaVuSans-30" x="147.412109"/>
      </g>
     </g>
    </g>
    <g id="ytick_2">
     <g id="line2d_17">
      <path d="M 108 300.855228 
L 777.6 300.855228 
" clip-path="url(#p50526b33eb)" style="fill: none; stroke: #b0b0b0; stroke-width: 0.8; stroke-linecap: square"/>
     </g>
     <g id="line2d_18">
      <g>
       <use xlink:href="#mc2b3775aa4" x="108" y="300.855228" style="stroke: #000000; stroke-width: 0.8"/>
      </g>
     </g>
     <g id="text_10">
      <!-- −10 -->
      <g transform="translate(79.895313 304.654447) scale(0.1 -0.1)">
       <use xlink:href="#DejaVuSans-2212"/>
       <use xlink:href="#DejaVuSans-31" x="83.789062"/>
       <use xlink:href="#DejaVuSans-30" x="147.412109"/>
      </g>
     </g>
    </g>
    <g id="ytick_3">
     <g id="line2d_19">
      <path d="M 108 248.416629 
L 777.6 248.416629 
" clip-path="url(#p50526b33eb)" style="fill: none; stroke: #b0b0b0; stroke-width: 0.8; stroke-linecap: square"/>
     </g>
     <g id="line2d_20">
      <g>
       <use xlink:href="#mc2b3775aa4" x="108" y="248.416629" style="stroke: #000000; stroke-width: 0.8"/>
      </g>
     </g>
     <g id="text_11">
      <!-- 0 -->
      <g transform="translate(94.6375 252.215848) scale(0.1 -0.1)">
       <use xlink:href="#DejaVuSans-30"/>
      </g>
     </g>
    </g>
    <g id="ytick_4">
     <g id="line2d_21">
      <path d="M 108 195.97803 
L 777.6 195.97803 
" clip-path="url(#p50526b33eb)" style="fill: none; stroke: #b0b0b0; stroke-width: 0.8; stroke-linecap: square"/>
     </g>
     <g id="line2d_22">
      <g>
       <use xlink:href="#mc2b3775aa4" x="108" y="195.97803" style="stroke: #000000; stroke-width: 0.8"/>
      </g>
     </g>
     <g id="text_12">
      <!-- 10 -->
      <g transform="translate(88.275 199.777249) scale(0.1 -0.1)">
       <use xlink:href="#DejaVuSans-31"/>
       <use xlink:href="#DejaVuSans-30" x="63.623047"/>
      </g>
     </g>
    </g>
    <g id="ytick_5">
     <g id="line2d_23">
      <path d="M 108 143.539431 
L 777.6 143.539431 
" clip-path="url(#p50526b33eb)" style="fill: none; stroke: #b0b0b0; stroke-width: 0.8; stroke-linecap: square"/>
     </g>
     <g id="line2d_24">
      <g>
       <use xlink:href="#mc2b3775aa4" x="108" y="143.539431" style="stroke: #000000; stroke-width: 0.8"/>
      </g>
     </g>
     <g id="text_13">
      <!-- 20 -->
      <g transform="translate(88.275 147.338649) scale(0.1 -0.1)">
       <use xlink:href="#DejaVuSans-32"/>
       <use xlink:href="#DejaVuSans-30" x="63.623047"/>
      </g>
     </g>
    </g>
    <g id="ytick_6">
     <g id="line2d_25">
      <path d="M 108 91.100831 
L 777.6 91.100831 
" clip-path="url(#p50526b33eb)" style="fill: none; stroke: #b0b0b0; stroke-width: 0.8; stroke-linecap: square"/>
     </g>
     <g id="line2d_26">
      <g>
       <use xlink:href="#mc2b3775aa4" x="108" y="91.100831" style="stroke: #000000; stroke-width: 0.8"/>
      </g>
     </g>
     <g id="text_14">
      <!-- 30 -->
      <g transform="translate(88.275 94.90005) scale(0.1 -0.1)">
       <defs>
        <path id="DejaVuSans-33" d="M 2597 2516 
Q 3050 2419 3304 2112 
Q 3559 1806 3559 1356 
Q 3559 666 3084 287 
Q 2609 -91 1734 -91 
Q 1441 -91 1130 -33 
Q 819 25 488 141 
L 488 750 
Q 750 597 1062 519 
Q 1375 441 1716 441 
Q 2309 441 2620 675 
Q 2931 909 2931 1356 
Q 2931 1769 2642 2001 
Q 2353 2234 1838 2234 
L 1294 2234 
L 1294 2753 
L 1863 2753 
Q 2328 2753 2575 2939 
Q 2822 3125 2822 3475 
Q 2822 3834 2567 4026 
Q 2313 4219 1838 4219 
Q 1578 4219 1281 4162 
Q 984 4106 628 3988 
L 628 4550 
Q 988 4650 1302 4700 
Q 1616 4750 1894 4750 
Q 2613 4750 3031 4423 
Q 3450 4097 3450 3541 
Q 3450 3153 3228 2886 
Q 3006 2619 2597 2516 
z
" transform="scale(0.015625)"/>
       </defs>
       <use xlink:href="#DejaVuSans-33"/>
       <use xlink:href="#DejaVuSans-30" x="63.623047"/>
      </g>
     </g>
    </g>
    <g id="text_15">
     <!-- Amplitude [V/m] -->
     <g transform="translate(73.815625 259.248281) rotate(-90) scale(0.1 -0.1)">
      <defs>
       <path id="DejaVuSans-41" d="M 2188 4044 
L 1331 1722 
L 3047 1722 
L 2188 4044 
z
M 1831 4666 
L 2547 4666 
L 4325 0 
L 3669 0 
L 3244 1197 
L 1141 1197 
L 716 0 
L 50 0 
L 1831 4666 
z
" transform="scale(0.015625)"/>
       <path id="DejaVuSans-69" d="M 603 3500 
L 1178 3500 
L 1178 0 
L 603 0 
L 603 3500 
z
M 603 4863 
L 1178 4863 
L 1178 4134 
L 603 4134 
L 603 4863 
z
" transform="scale(0.015625)"/>
       <path id="DejaVuSans-74" d="M 1172 4494 
L 1172 3500 
L 2356 3500 
L 2356 3053 
L 1172 3053 
L 1172 1153 
Q 1172 725 1289 603 
Q 1406 481 1766 481 
L 2356 481 
L 2356 0 
L 1766 0 
Q 1100 0 847 248 
Q 594 497 594 1153 
L 594 3053 
L 172 3053 
L 172 3500 
L 594 3500 
L 594 4494 
L 1172 4494 
z
" transform="scale(0.015625)"/>
       <path id="DejaVuSans-75" d="M 544 1381 
L 544 3500 
L 1119 3500 
L 1119 1403 
Q 1119 906 1312 657 
Q 1506 409 1894 409 
Q 2359 409 2629 706 
Q 2900 1003 2900 1516 
L 2900 3500 
L 3475 3500 
L 3475 0 
L 2900 0 
L 2900 538 
Q 2691 219 2414 64 
Q 2138 -91 1772 -91 
Q 1169 -91 856 284 
Q 544 659 544 1381 
z
M 1991 3584 
L 1991 3584 
z
" transform="scale(0.015625)"/>
       <path id="DejaVuSans-64" d="M 2906 2969 
L 2906 4863 
L 3481 4863 
L 3481 0 
L 2906 0 
L 2906 525 
Q 2725 213 2448 61 
Q 2172 -91 1784 -91 
Q 1150 -91 751 415 
Q 353 922 353 1747 
Q 353 2572 751 3078 
Q 1150 3584 1784 3584 
Q 2172 3584 2448 3432 
Q 2725 3281 2906 2969 
z
M 947 1747 
Q 947 1113 1208 752 
Q 1469 391 1925 391 
Q 2381 391 2643 752 
Q 2906 1113 2906 1747 
Q 2906 2381 2643 2742 
Q 2381 3103 1925 3103 
Q 1469 3103 1208 2742 
Q 947 2381 947 1747 
z
" transform="scale(0.015625)"/>
       <path id="DejaVuSans-20" transform="scale(0.015625)"/>
       <path id="DejaVuSans-5b" d="M 550 4863 
L 1875 4863 
L 1875 4416 
L 1125 4416 
L 1125 -397 
L 1875 -397 
L 1875 -844 
L 550 -844 
L 550 4863 
z
" transform="scale(0.015625)"/>
       <path id="DejaVuSans-56" d="M 1831 0 
L 50 4666 
L 709 4666 
L 2188 738 
L 3669 4666 
L 4325 4666 
L 2547 0 
L 1831 0 
z
" transform="scale(0.015625)"/>
       <path id="DejaVuSans-2f" d="M 1625 4666 
L 2156 4666 
L 531 -594 
L 0 -594 
L 1625 4666 
z
" transform="scale(0.015625)"/>
       <path id="DejaVuSans-5d" d="M 1947 4863 
L 1947 -844 
L 622 -844 
L 622 -397 
L 1369 -397 
L 1369 4416 
L 622 4416 
L 622 4863 
L 1947 4863 
z
" transform="scale(0.015625)"/>
      </defs>
      <use xlink:href="#DejaVuSans-41"/>
      <use xlink:href="#DejaVuSans-6d" x="68.408203"/>
      <use xlink:href="#DejaVuSans-70" x="165.820312"/>
      <use xlink:href="#DejaVuSans-6c" x="229.296875"/>
      <use xlink:href="#DejaVuSans-69" x="257.080078"/>
      <use xlink:href="#DejaVuSans-74" x="284.863281"/>
      <use xlink:href="#DejaVuSans-75" x="324.072266"/>
      <use xlink:href="#DejaVuSans-64" x="387.451172"/>
      <use xlink:href="#DejaVuSans-65" x="450.927734"/>
      <use xlink:href="#DejaVuSans-20" x="512.451172"/>
      <use xlink:href="#DejaVuSans-5b" x="544.238281"/>
      <use xlink:href="#DejaVuSans-56" x="583.251953"/>
      <use xlink:href="#DejaVuSans-2f" x="651.660156"/>
      <use xlink:href="#DejaVuSans-6d" x="685.351562"/>
      <use xlink:href="#DejaVuSans-5d" x="782.763672"/>
     </g>
    </g>
   </g>
   <g id="line2d_27">
    <path d="M 138.436364 248.416629 
L 211.420989 248.416629 
L 211.473195 250.01913 
L 211.577608 250.011466 
L 216.693841 249.676045 
L 244.206643 248.853059 
L 256.31854 248.760604 
L 260.495057 249.014488 
L 262.374489 249.39501 
L 263.784064 249.910753 
L 264.932606 250.548645 
L 266.081148 251.452746 
L 267.07307 252.500648 
L 268.064993 253.845869 
L 269.265741 255.935484 
L 270.414283 258.450749 
L 271.667238 261.778279 
L 273.076813 266.155396 
L 276.835678 278.273321 
L 277.670981 280.113657 
L 278.245252 280.972128 
L 278.767316 281.391209 
L 279.184968 281.444424 
L 279.550413 281.261512 
L 279.968065 280.769005 
L 280.437923 279.826951 
L 281.012194 278.070863 
L 281.638671 275.355063 
L 282.317355 271.426234 
L 283.100452 265.594584 
L 284.040168 256.811529 
L 285.136504 244.370592 
L 286.702698 223.662601 
L 289.521846 186.047084 
L 290.565975 175.228172 
L 291.349072 169.158503 
L 291.97555 165.811743 
L 292.497614 164.142521 
L 292.863059 163.610921 
L 293.124092 163.555451 
L 293.385124 163.777012 
L 293.698363 164.40627 
L 294.116014 165.859562 
L 294.585872 168.31241 
L 295.21235 172.885029 
L 295.995447 180.517541 
L 296.935163 192.059323 
L 298.240324 211.142754 
L 301.84257 265.368803 
L 302.938905 277.833201 
L 303.826415 285.597022 
L 304.609512 290.591695 
L 305.235989 293.333468 
L 305.758054 294.79133 
L 306.175706 295.443762 
L 306.541151 295.660353 
L 306.85439 295.596576 
L 307.167628 295.317644 
L 307.58528 294.635101 
L 308.107344 293.331192 
L 308.786028 291.001992 
L 309.725745 286.872313 
L 311.291938 278.696065 
L 313.589022 266.711683 
L 314.841977 261.236972 
L 315.938313 257.333144 
L 316.982442 254.41415 
L 317.974365 252.321084 
L 318.809668 251.012841 
L 319.644971 250.059068 
L 320.532481 249.364812 
L 321.524404 248.890205 
L 322.516326 248.640281 
L 323.978107 248.517907 
L 330.086262 248.393398 
L 339.640044 247.684733 
L 344.025386 247.776527 
L 355.667426 248.151587 
L 368.249181 248.299049 
L 371.642601 248.489449 
L 373.469827 248.737311 
L 375.244846 249.179274 
L 376.602214 249.725646 
L 377.646343 250.313502 
L 378.899298 251.266642 
L 379.995634 252.359947 
L 381.144176 253.797857 
L 382.501544 255.900722 
L 384.119944 258.922996 
L 388.244254 266.923729 
L 389.079557 267.920408 
L 389.706035 268.355373 
L 390.228099 268.468659 
L 390.697957 268.351396 
L 391.220022 267.947115 
L 391.794293 267.137805 
L 392.368564 265.922157 
L 393.047248 263.921813 
L 393.778138 261.066359 
L 394.613441 256.908472 
L 395.605364 250.799279 
L 396.806113 241.966742 
L 398.894371 224.560299 
L 400.66939 210.519455 
L 401.713519 203.884702 
L 402.496616 200.12739 
L 403.123094 198.020927 
L 403.645158 196.933828 
L 404.06281 196.523702 
L 404.376049 196.490806 
L 404.689287 196.693318 
L 405.054733 197.229009 
L 405.524591 198.384279 
L 406.098862 200.488323 
L 406.777546 203.892299 
L 407.612849 209.290975 
L 408.709184 217.969449 
L 410.484204 234.05823 
L 412.468049 251.396677 
L 413.616591 259.58075 
L 414.556308 264.78359 
L 415.339404 267.971006 
L 416.018088 269.86904 
L 416.592359 270.863131 
L 417.062217 271.278081 
L 417.479869 271.363437 
L 417.897521 271.201592 
L 418.419585 270.681752 
L 419.046063 269.653725 
L 419.776953 268.0051 
L 420.821082 265.075681 
L 424.214502 255.230812 
L 425.154218 253.361681 
L 426.041728 252.160915 
L 426.615999 251.682384 
L 427.346889 251.424634 
L 428.025573 251.517796 
L 428.599844 251.822421 
L 429.382941 252.540978 
L 430.270451 253.698747 
L 431.523406 255.761723 
L 435.021238 261.773521 
L 435.960954 262.925019 
L 436.796258 263.655224 
L 437.474942 264.024911 
L 438.310245 264.17995 
L 439.145548 264.000536 
L 439.980851 263.490715 
L 440.816155 262.667979 
L 441.703664 261.482241 
L 442.904413 259.437186 
L 444.261781 256.674195 
L 449.639046 245.280999 
L 450.787588 243.543528 
L 451.883923 242.279427 
L 452.875846 241.481098 
L 453.867769 241.006377 
L 454.650865 240.841618 
L 455.590582 240.864579 
L 456.634711 241.124228 
L 458.096492 241.785405 
L 463.578169 244.656434 
L 465.03995 245.040698 
L 466.292905 245.210786 
L 467.911305 245.27097 
L 472.975331 245.438223 
L 475.115796 245.927319 
L 476.995228 246.590472 
L 479.344519 247.576845 
L 482.111461 248.661931 
L 484.356339 249.276973 
L 486.496803 249.576622 
L 488.376236 249.628012 
L 490.099049 249.547833 
L 502.785218 248.52787 
L 508.997786 248.447794 
L 517.820677 248.509059 
L 520.431 248.678095 
L 522.414845 248.972884 
L 524.294277 249.491585 
L 525.912677 250.220358 
L 527.217839 251.057444 
L 528.523 252.156426 
L 529.880368 253.592125 
L 531.498768 255.655448 
L 535.362046 260.840598 
L 536.353969 261.706341 
L 537.084859 262.061071 
L 537.711336 262.121143 
L 538.233401 261.971751 
L 538.755465 261.619895 
L 539.329736 260.97946 
L 540.00842 259.849832 
L 540.739311 258.162449 
L 541.522408 255.800277 
L 542.462124 252.224755 
L 543.610666 246.872674 
L 545.17686 238.330248 
L 547.996008 222.806808 
L 549.040137 218.338798 
L 549.875441 215.694459 
L 550.501918 214.358425 
L 551.023983 213.710173 
L 551.441634 213.509301 
L 551.807079 213.572128 
L 552.172525 213.854445 
L 552.642383 214.544944 
L 553.164447 215.730911 
L 553.843131 217.900029 
L 554.626228 221.203209 
L 555.618151 226.407039 
L 557.027725 235.104661 
L 559.951286 253.43498 
L 561.099828 259.17083 
L 562.039545 262.824415 
L 562.822642 265.075591 
L 563.501325 266.428371 
L 564.075596 267.147227 
L 564.597661 267.475833 
L 565.067519 267.522066 
L 565.589584 267.314884 
L 566.163855 266.802576 
L 566.842539 265.863386 
L 567.730048 264.18791 
L 568.826384 261.626161 
L 573.942617 248.955015 
L 575.143365 246.845955 
L 576.239701 245.359253 
L 577.179417 244.423747 
L 578.066927 243.823683 
L 578.954436 243.492697 
L 579.78974 243.417319 
L 580.625043 243.561426 
L 581.512553 243.941764 
L 582.504475 244.624262 
L 583.600811 245.660754 
L 585.062592 247.422781 
L 587.15085 250.406301 
L 589.65676 253.972289 
L 590.909715 255.424852 
L 591.953844 256.339165 
L 592.841354 256.85811 
L 593.728863 257.108465 
L 594.407547 257.114714 
L 595.24285 256.894575 
L 596.182567 256.360264 
L 597.226696 255.445173 
L 598.479651 253.988225 
L 600.41129 251.308517 
L 602.812787 248.108727 
L 603.961329 246.934794 
L 604.953251 246.199529 
L 605.892967 245.76788 
L 606.780477 245.595761 
L 607.720193 245.644085 
L 608.816529 245.949146 
L 610.382723 246.685856 
L 613.410697 248.141613 
L 614.663652 248.452152 
L 615.8644 248.525337 
L 617.169562 248.390043 
L 621.815936 247.696221 
L 623.121098 247.898346 
L 624.374053 248.322125 
L 626.096866 249.158362 
L 628.602776 250.338916 
L 629.751318 250.629197 
L 630.847653 250.66576 
L 631.839576 250.475789 
L 632.935911 250.026335 
L 634.293279 249.182093 
L 639.252893 245.652178 
L 640.297022 245.26631 
L 641.288944 245.094162 
L 642.541899 245.148508 
L 643.794854 245.467745 
L 645.100016 246.006547 
L 650.477281 248.476155 
L 651.886855 248.783259 
L 653.557461 248.883256 
L 655.593513 248.680303 
L 657.525152 248.28585 
L 661.492843 247.432706 
L 663.633307 247.192896 
L 665.51274 247.175464 
L 667.496585 247.350795 
L 670.628972 247.942473 
L 674.283424 248.810799 
L 677.154779 249.31732 
L 679.295244 249.459283 
L 681.540122 249.345695 
L 683.054109 249.133223 
L 691.093903 247.667234 
L 693.443194 247.662984 
L 695.479245 247.86861 
L 703.988898 248.963664 
L 706.077156 248.95201 
L 708.478653 248.823901 
L 718.293466 248.388522 
L 723.827351 248.420321 
L 727.847248 248.451195 
L 729.465648 248.4613 
L 729.465648 248.4613 
" clip-path="url(#p50526b33eb)" style="fill: none; stroke-dasharray: 5.55,2.4; stroke-dashoffset: 0; stroke: #0000ff; stroke-width: 1.5"/>
   </g>
   <g id="line2d_28">
    <path d="M 138.436364 248.416629 
L 262.270076 248.516968 
L 262.583315 248.741933 
L 262.844347 249.224467 
L 263.10538 250.276221 
L 263.366412 252.397801 
L 263.627444 256.303477 
L 263.940683 264.524257 
L 264.358335 282.716204 
L 265.037019 313.080833 
L 265.089225 313.579871 
L 265.141431 313.553666 
L 265.245844 311.705806 
L 265.402464 303.740092 
L 265.663496 274.575257 
L 266.028941 202.899683 
L 266.655419 77.751317 
L 266.864245 66.96 
L 266.968657 70.702339 
L 267.177483 96.474835 
L 267.542928 186.265125 
L 268.169406 343.126858 
L 268.430438 367.734426 
L 268.534851 369.36 
L 268.639264 366.855222 
L 268.84809 351.998096 
L 270.048838 241.681577 
L 270.309871 236.632251 
L 270.46649 235.941029 
L 270.570903 236.121386 
L 270.779729 237.418415 
L 271.771651 244.871774 
L 272.189303 246.08492 
L 272.711368 246.892941 
L 273.390051 247.5795 
L 274.068735 247.922479 
L 275.008452 248.175435 
L 276.418026 248.257404 
L 279.498207 248.360019 
L 289.782879 248.470322 
L 291.662311 248.463303 
L 299.33666 248.41382 
L 313.850055 248.414863 
L 324.656791 248.411977 
L 329.720817 248.417047 
L 334.367192 248.416245 
L 344.077592 248.41659 
L 357.024793 248.416562 
L 372.791143 248.464953 
L 373.313208 248.657677 
L 373.626446 248.997975 
L 373.939685 249.72289 
L 374.252924 251.140135 
L 374.566162 253.657284 
L 374.931608 258.493352 
L 375.558085 270.76126 
L 375.92353 276.167955 
L 376.027943 276.58471 
L 376.08015 276.512975 
L 376.184563 275.719076 
L 376.341182 272.647517 
L 376.602214 261.692206 
L 376.967659 234.07813 
L 377.750756 168.98102 
L 377.907376 165.638275 
L 377.959582 165.760438 
L 378.063995 167.950067 
L 378.272821 179.959516 
L 378.638266 220.04485 
L 379.31695 294.815395 
L 379.577982 303.848773 
L 379.630189 304.053391 
L 379.734602 303.036461 
L 379.943427 296.337639 
L 381.091969 247.833137 
L 381.353002 245.441458 
L 381.561828 245.009515 
L 381.718447 245.143677 
L 382.188305 246.197766 
L 382.658163 246.983099 
L 383.128021 247.346666 
L 383.963324 247.596877 
L 384.850834 247.953724 
L 385.79055 248.273126 
L 386.886886 248.323606 
L 388.714112 248.321068 
L 391.115609 248.38937 
L 398.476719 248.387593 
L 399.834087 248.484147 
L 401.870139 248.436684 
L 402.705442 248.277915 
L 403.123094 247.985067 
L 403.488539 247.449614 
L 403.906191 246.391495 
L 404.845907 243.733131 
L 405.002526 243.837199 
L 405.159145 244.292527 
L 405.420178 245.964586 
L 405.785623 250.142363 
L 406.56872 259.473684 
L 406.725339 259.898696 
L 406.829752 259.756888 
L 406.986371 258.909031 
L 407.247404 256.037916 
L 408.239326 243.221425 
L 408.448152 242.602368 
L 408.552565 242.6077 
L 408.709184 242.929414 
L 409.022423 244.266623 
L 409.753314 247.403711 
L 410.118759 248.12447 
L 410.484204 248.411307 
L 410.901856 248.432099 
L 411.319507 248.216491 
L 411.684952 247.789135 
L 412.102604 246.910281 
L 413.19894 244.042349 
L 413.251146 244.065649 
L 413.407765 244.34429 
L 413.616591 245.295888 
L 413.92983 248.057766 
L 415.026166 259.472936 
L 415.130579 259.378621 
L 415.287198 258.620978 
L 415.54823 255.92457 
L 416.592359 243.012939 
L 416.801185 242.535036 
L 416.905598 242.592124 
L 417.114424 243.15141 
L 417.636488 245.647165 
L 418.158553 247.572866 
L 418.523998 248.223906 
L 418.94165 248.513521 
L 419.515921 248.568399 
L 422.230656 248.476194 
L 425.102012 248.428883 
L 426.30276 248.172881 
L 427.294683 248.290148 
L 429.017496 248.43334 
L 432.880773 248.427212 
L 439.458787 248.460993 
L 440.137471 248.616067 
L 441.494839 249.106855 
L 441.808077 248.889411 
L 442.173523 248.353701 
L 443.008826 247.025089 
L 443.269858 246.980651 
L 443.53089 247.182547 
L 444.000748 247.938944 
L 444.575019 248.767353 
L 444.940465 248.954764 
L 445.358116 248.895075 
L 446.872104 248.462096 
L 449.221394 248.416204 
L 451.570685 248.363348 
L 466.031873 248.417973 
L 474.750351 248.416975 
L 497.199127 248.416186 
L 502.367566 248.418041 
L 504.351411 248.417245 
L 511.033838 248.416514 
L 521.057477 248.619316 
L 521.370716 248.954771 
L 521.683954 249.720064 
L 521.997193 251.289714 
L 522.310432 254.14253 
L 522.728084 260.515979 
L 523.51118 273.525449 
L 523.563387 273.653078 
L 523.615593 273.586483 
L 523.720006 272.777151 
L 523.876626 269.61506 
L 524.137658 258.370814 
L 524.503103 230.698142 
L 525.181787 177.937434 
L 525.338406 174.674679 
L 525.390613 174.794316 
L 525.495026 176.921224 
L 525.703852 188.540345 
L 526.069297 226.710458 
L 526.695774 291.201079 
L 526.956806 300.214864 
L 527.009013 300.481003 
L 527.061219 300.280396 
L 527.217839 297.163223 
L 527.531077 283.164823 
L 528.209761 250.946631 
L 528.523 244.322182 
L 528.784032 242.527838 
L 528.888445 242.450652 
L 529.045065 242.767142 
L 529.41051 244.4047 
L 529.932574 246.507178 
L 530.350226 247.339287 
L 530.715671 247.644034 
L 531.394355 247.817353 
L 532.281865 248.124661 
L 533.064962 248.331025 
L 534.683362 248.361398 
L 538.233401 248.397856 
L 541.000343 248.403881 
L 545.751131 248.488572 
L 547.160705 248.674005 
L 547.682769 248.414465 
L 548.779105 247.750448 
L 549.14455 247.863797 
L 549.771028 248.381838 
L 550.345299 248.721335 
L 550.867363 248.726442 
L 552.955621 248.422354 
L 560.160112 248.18162 
L 560.62997 247.796939 
L 561.099828 247.085023 
L 561.935132 245.717759 
L 562.091751 245.730201 
L 562.300577 246.048283 
L 562.561609 247.032837 
L 562.927054 249.496618 
L 563.710151 255.213335 
L 563.918977 255.506103 
L 564.075596 255.164028 
L 564.284422 253.989045 
L 564.702074 250.001192 
L 565.224138 245.408322 
L 565.485171 244.449002 
L 565.64179 244.360514 
L 565.798409 244.57504 
L 566.111648 245.573392 
L 566.790332 247.765375 
L 567.103571 248.141471 
L 567.364603 248.159159 
L 567.677842 247.912674 
L 568.1477 247.160111 
L 568.930797 245.868936 
L 569.139623 245.92317 
L 569.348448 246.334276 
L 569.609481 247.446182 
L 570.027132 250.473212 
L 570.65361 255.023616 
L 570.862436 255.488725 
L 570.966849 255.412406 
L 571.123468 254.899289 
L 571.3845 253.096315 
L 572.428629 244.483055 
L 572.637455 244.229107 
L 572.794075 244.394258 
L 573.055107 245.127233 
L 573.942617 247.941378 
L 574.308062 248.399253 
L 574.725713 248.567204 
L 575.561017 248.553307 
L 578.223546 248.553857 
L 579.424294 248.529714 
L 581.355933 248.17232 
L 582.86992 248.384058 
L 583.496398 248.174505 
L 583.91405 247.797669 
L 584.331701 247.102542 
L 585.219211 245.420352 
L 585.37583 245.493505 
L 585.584656 245.992448 
L 585.845688 247.372817 
L 586.26334 251.106549 
L 586.837611 255.996009 
L 587.046437 256.477454 
L 587.15085 256.333804 
L 587.359676 255.277669 
L 587.725121 251.533928 
L 588.403805 244.506206 
L 588.664837 243.612562 
L 588.821456 243.634654 
L 589.030282 244.16422 
L 589.604553 246.755167 
L 590.074411 248.247707 
L 590.439857 248.715682 
L 590.857508 248.844695 
L 592.00605 249.029359 
L 592.528115 249.041831 
L 592.89356 248.811622 
L 593.363418 248.17222 
L 594.042102 247.244481 
L 594.303134 247.168466 
L 594.564167 247.315104 
L 594.981818 247.879621 
L 595.660502 248.760284 
L 596.025947 248.888408 
L 596.495805 248.764004 
L 597.435522 248.460921 
L 598.323031 248.515506 
L 599.001715 248.474449 
L 599.419367 248.238152 
L 599.837019 247.723165 
L 600.306877 246.754834 
L 600.933354 245.465459 
L 601.14218 245.433306 
L 601.298799 245.675638 
L 601.507625 246.4383 
L 601.820864 248.56034 
L 602.76058 255.887305 
L 602.864993 255.963111 
L 602.969406 255.792211 
L 603.178232 254.73138 
L 603.543677 251.16013 
L 604.170154 245.028787 
L 604.431187 244.053966 
L 604.587806 243.999479 
L 604.744425 244.27001 
L 605.057664 245.432047 
L 605.788554 248.238604 
L 606.154 248.875074 
L 606.519445 249.112318 
L 606.937097 249.1424 
L 607.511368 248.971206 
L 608.242258 248.471301 
L 609.599626 247.381832 
L 609.912864 247.39846 
L 610.27831 247.653786 
L 611.583471 248.886461 
L 612.001123 248.820091 
L 613.306284 248.402267 
L 614.089381 248.564339 
L 614.820271 248.653288 
L 615.551162 248.469152 
L 616.438671 248.27686 
L 617.326181 248.358452 
L 618.579136 248.447346 
L 623.904195 248.42489 
L 628.863808 248.496244 
L 630.586621 248.667275 
L 631.056479 248.363256 
L 631.996195 247.669311 
L 632.309434 247.716557 
L 632.727086 248.041347 
L 633.562389 248.731662 
L 633.980041 248.765496 
L 636.64257 248.367627 
L 637.634492 248.451833 
L 639.357305 248.762585 
L 639.827164 248.416607 
L 640.76688 247.660473 
L 641.080119 247.707445 
L 641.49777 248.039322 
L 642.280867 248.720028 
L 642.698519 248.775769 
L 643.429409 248.548349 
L 644.160299 248.404253 
L 646.039732 248.364836 
L 650.842726 248.436732 
L 653.922907 248.420627 
L 656.428816 248.416951 
L 660.814159 248.455656 
L 661.753875 248.646509 
L 662.536972 248.769608 
L 662.954623 248.598198 
L 663.528894 248.042023 
L 664.050959 247.619406 
L 664.364198 247.617341 
L 664.729643 247.884582 
L 665.773772 248.816242 
L 666.191424 248.799467 
L 668.123063 248.357855 
L 669.950288 248.346641 
L 671.516482 248.64827 
L 673.60474 248.378285 
L 674.909902 248.406225 
L 676.789334 248.411731 
L 680.026134 248.423771 
L 683.367348 248.416901 
L 694.643942 248.416471 
L 726.594293 248.44682 
L 728.003867 248.608127 
L 728.578138 248.575595 
L 729.204616 248.299068 
L 729.987712 247.932649 
L 730.405364 247.989675 
L 730.979635 248.338117 
L 731.606113 248.647052 
L 732.128177 248.648335 
L 734.164229 248.404942 
L 735.312771 248.593133 
L 736.043661 248.637118 
L 736.565726 248.423365 
L 737.557649 247.93318 
L 737.9753 248.038077 
L 739.332668 248.663367 
L 740.011352 248.542893 
L 741.055481 248.377657 
L 742.25623 248.373662 
L 744.187868 248.48577 
L 745.910681 248.400659 
L 747.163636 248.467512 
L 747.163636 248.467512 
" clip-path="url(#p50526b33eb)" style="fill: none; stroke: #ff0000; stroke-width: 1.5; stroke-linecap: square"/>
   </g>
   <g id="patch_3">
    <path d="M 108 384.48 
L 108 51.84 
" style="fill: none; stroke: #000000; stroke-width: 0.8; stroke-linejoin: miter; stroke-linecap: square"/>
   </g>
   <g id="patch_4">
    <path d="M 777.6 384.48 
L 777.6 51.84 
" style="fill: none; stroke: #000000; stroke-width: 0.8; stroke-linejoin: miter; stroke-linecap: square"/>
   </g>
   <g id="patch_5">
    <path d="M 108 384.48 
L 777.6 384.48 
" style="fill: none; stroke: #000000; stroke-width: 0.8; stroke-linejoin: miter; stroke-linecap: square"/>
   </g>
   <g id="patch_6">
    <path d="M 108 51.84 
L 777.6 51.84 
" style="fill: none; stroke: #000000; stroke-width: 0.8; stroke-linejoin: miter; stroke-linecap: square"/>
   </g>
   <g id="text_16">
    <!-- 34.60 -->
    <g style="fill: #0000ff" transform="translate(266.864245 79.1175) scale(0.16 -0.16)">
     <defs>
      <path id="DejaVuSans-2e" d="M 684 794 
L 1344 794 
L 1344 0 
L 684 0 
L 684 794 
z
" transform="scale(0.015625)"/>
     </defs>
     <use xlink:href="#DejaVuSans-33"/>
     <use xlink:href="#DejaVuSans-34" x="63.623047"/>
     <use xlink:href="#DejaVuSans-2e" x="127.246094"/>
     <use xlink:href="#DejaVuSans-36" x="159.033203"/>
     <use xlink:href="#DejaVuSans-30" x="222.65625"/>
    </g>
   </g>
   <g id="text_17">
    <!-- 16.19 -->
    <g style="fill: #0000ff" transform="translate(293.019679 175.701149) scale(0.16 -0.16)">
     <defs>
      <path id="DejaVuSans-39" d="M 703 97 
L 703 672 
Q 941 559 1184 500 
Q 1428 441 1663 441 
Q 2288 441 2617 861 
Q 2947 1281 2994 2138 
Q 2813 1869 2534 1725 
Q 2256 1581 1919 1581 
Q 1219 1581 811 2004 
Q 403 2428 403 3163 
Q 403 3881 828 4315 
Q 1253 4750 1959 4750 
Q 2769 4750 3195 4129 
Q 3622 3509 3622 2328 
Q 3622 1225 3098 567 
Q 2575 -91 1691 -91 
Q 1453 -91 1209 -44 
Q 966 3 703 97 
z
M 1959 2075 
Q 2384 2075 2632 2365 
Q 2881 2656 2881 3163 
Q 2881 3666 2632 3958 
Q 2384 4250 1959 4250 
Q 1534 4250 1286 3958 
Q 1038 3666 1038 3163 
Q 1038 2656 1286 2365 
Q 1534 2075 1959 2075 
z
" transform="scale(0.015625)"/>
     </defs>
     <use xlink:href="#DejaVuSans-31"/>
     <use xlink:href="#DejaVuSans-36" x="63.623047"/>
     <use xlink:href="#DejaVuSans-2e" x="127.246094"/>
     <use xlink:href="#DejaVuSans-31" x="159.033203"/>
     <use xlink:href="#DejaVuSans-39" x="222.65625"/>
    </g>
   </g>
   <g id="text_18">
    <!-- 15.79 -->
    <g style="fill: #ff0000" transform="translate(377.907376 177.795775) scale(0.16 -0.16)">
     <defs>
      <path id="DejaVuSans-35" d="M 691 4666 
L 3169 4666 
L 3169 4134 
L 1269 4134 
L 1269 2991 
Q 1406 3038 1543 3061 
Q 1681 3084 1819 3084 
Q 2600 3084 3056 2656 
Q 3513 2228 3513 1497 
Q 3513 744 3044 326 
Q 2575 -91 1722 -91 
Q 1428 -91 1123 -41 
Q 819 9 494 109 
L 494 744 
Q 775 591 1075 516 
Q 1375 441 1709 441 
Q 2250 441 2565 725 
Q 2881 1009 2881 1497 
Q 2881 1984 2565 2268 
Q 2250 2553 1709 2553 
Q 1456 2553 1204 2497 
Q 953 2441 691 2322 
L 691 4666 
z
" transform="scale(0.015625)"/>
      <path id="DejaVuSans-37" d="M 525 4666 
L 3525 4666 
L 3525 4397 
L 1831 0 
L 1172 0 
L 2766 4134 
L 525 4134 
L 525 4666 
z
" transform="scale(0.015625)"/>
     </defs>
     <use xlink:href="#DejaVuSans-31"/>
     <use xlink:href="#DejaVuSans-35" x="63.623047"/>
     <use xlink:href="#DejaVuSans-2e" x="127.246094"/>
     <use xlink:href="#DejaVuSans-37" x="159.033203"/>
     <use xlink:href="#DejaVuSans-39" x="222.65625"/>
    </g>
   </g>
   <g id="text_19">
    <!-- 9.91 -->
    <g style="fill: #ff0000" transform="translate(404.271636 208.633103) scale(0.16 -0.16)">
     <use xlink:href="#DejaVuSans-39"/>
     <use xlink:href="#DejaVuSans-2e" x="63.623047"/>
     <use xlink:href="#DejaVuSans-39" x="95.410156"/>
     <use xlink:href="#DejaVuSans-31" x="159.033203"/>
    </g>
   </g>
   <g id="text_20">
    <!-- 14.06 -->
    <g style="fill: #008000" transform="translate(525.338406 186.832179) scale(0.16 -0.16)">
     <use xlink:href="#DejaVuSans-31"/>
     <use xlink:href="#DejaVuSans-34" x="63.623047"/>
     <use xlink:href="#DejaVuSans-2e" x="127.246094"/>
     <use xlink:href="#DejaVuSans-30" x="159.033203"/>
     <use xlink:href="#DejaVuSans-36" x="222.65625"/>
    </g>
   </g>
   <g id="text_21">
    <!-- 6.66 -->
    <g style="fill: #008000" transform="translate(551.546047 225.661297) scale(0.16 -0.16)">
     <use xlink:href="#DejaVuSans-36"/>
     <use xlink:href="#DejaVuSans-2e" x="63.623047"/>
     <use xlink:href="#DejaVuSans-36" x="95.410156"/>
     <use xlink:href="#DejaVuSans-36" x="159.033203"/>
    </g>
   </g>
   <g id="text_22">
    <!-- 16.19 -->
    <g style="fill: #0000ff" transform="translate(293.019679 175.701149) scale(0.16 -0.16)">
     <use xlink:href="#DejaVuSans-31"/>
     <use xlink:href="#DejaVuSans-36" x="63.623047"/>
     <use xlink:href="#DejaVuSans-2e" x="127.246094"/>
     <use xlink:href="#DejaVuSans-31" x="159.033203"/>
     <use xlink:href="#DejaVuSans-39" x="222.65625"/>
    </g>
   </g>
   <g id="text_23">
    <!-- 9.91 -->
    <g style="fill: #0000ff" transform="translate(404.271636 208.633103) scale(0.16 -0.16)">
     <use xlink:href="#DejaVuSans-39"/>
     <use xlink:href="#DejaVuSans-2e" x="63.623047"/>
     <use xlink:href="#DejaVuSans-39" x="95.410156"/>
     <use xlink:href="#DejaVuSans-31" x="159.033203"/>
    </g>
   </g>
   <g id="text_24">
    <!-- 6.66 -->
    <g style="fill: #0000ff" transform="translate(551.546047 225.661297) scale(0.16 -0.16)">
     <use xlink:href="#DejaVuSans-36"/>
     <use xlink:href="#DejaVuSans-2e" x="63.623047"/>
     <use xlink:href="#DejaVuSans-36" x="95.410156"/>
     <use xlink:href="#DejaVuSans-36" x="159.033203"/>
    </g>
   </g>
   <g id="text_25">
    <!-- 34.60 -->
    <g style="fill: #ff0000" transform="translate(266.864245 79.1175) scale(0.16 -0.16)">
     <use xlink:href="#DejaVuSans-33"/>
     <use xlink:href="#DejaVuSans-34" x="63.623047"/>
     <use xlink:href="#DejaVuSans-2e" x="127.246094"/>
     <use xlink:href="#DejaVuSans-36" x="159.033203"/>
     <use xlink:href="#DejaVuSans-30" x="222.65625"/>
    </g>
   </g>
   <g id="text_26">
    <!-- 15.79 -->
    <g style="fill: #ff0000" transform="translate(377.907376 177.795775) scale(0.16 -0.16)">
     <use xlink:href="#DejaVuSans-31"/>
     <use xlink:href="#DejaVuSans-35" x="63.623047"/>
     <use xlink:href="#DejaVuSans-2e" x="127.246094"/>
     <use xlink:href="#DejaVuSans-37" x="159.033203"/>
     <use xlink:href="#DejaVuSans-39" x="222.65625"/>
    </g>
   </g>
   <g id="text_27">
    <!-- 14.06 -->
    <g style="fill: #ff0000" transform="translate(525.338406 186.832179) scale(0.16 -0.16)">
     <use xlink:href="#DejaVuSans-31"/>
     <use xlink:href="#DejaVuSans-34" x="63.623047"/>
     <use xlink:href="#DejaVuSans-2e" x="127.246094"/>
     <use xlink:href="#DejaVuSans-30" x="159.033203"/>
     <use xlink:href="#DejaVuSans-36" x="222.65625"/>
    </g>
   </g>
   <g id="text_28">
    <!-- Comparison of Dual Frequency Signals -->
    <g transform="translate(327.14625 45.84) scale(0.12 -0.12)">
     <defs>
      <path id="DejaVuSans-43" d="M 4122 4306 
L 4122 3641 
Q 3803 3938 3442 4084 
Q 3081 4231 2675 4231 
Q 1875 4231 1450 3742 
Q 1025 3253 1025 2328 
Q 1025 1406 1450 917 
Q 1875 428 2675 428 
Q 3081 428 3442 575 
Q 3803 722 4122 1019 
L 4122 359 
Q 3791 134 3420 21 
Q 3050 -91 2638 -91 
Q 1578 -91 968 557 
Q 359 1206 359 2328 
Q 359 3453 968 4101 
Q 1578 4750 2638 4750 
Q 3056 4750 3426 4639 
Q 3797 4528 4122 4306 
z
" transform="scale(0.015625)"/>
      <path id="DejaVuSans-6f" d="M 1959 3097 
Q 1497 3097 1228 2736 
Q 959 2375 959 1747 
Q 959 1119 1226 758 
Q 1494 397 1959 397 
Q 2419 397 2687 759 
Q 2956 1122 2956 1747 
Q 2956 2369 2687 2733 
Q 2419 3097 1959 3097 
z
M 1959 3584 
Q 2709 3584 3137 3096 
Q 3566 2609 3566 1747 
Q 3566 888 3137 398 
Q 2709 -91 1959 -91 
Q 1206 -91 779 398 
Q 353 888 353 1747 
Q 353 2609 779 3096 
Q 1206 3584 1959 3584 
z
" transform="scale(0.015625)"/>
      <path id="DejaVuSans-72" d="M 2631 2963 
Q 2534 3019 2420 3045 
Q 2306 3072 2169 3072 
Q 1681 3072 1420 2755 
Q 1159 2438 1159 1844 
L 1159 0 
L 581 0 
L 581 3500 
L 1159 3500 
L 1159 2956 
Q 1341 3275 1631 3429 
Q 1922 3584 2338 3584 
Q 2397 3584 2469 3576 
Q 2541 3569 2628 3553 
L 2631 2963 
z
" transform="scale(0.015625)"/>
      <path id="DejaVuSans-73" d="M 2834 3397 
L 2834 2853 
Q 2591 2978 2328 3040 
Q 2066 3103 1784 3103 
Q 1356 3103 1142 2972 
Q 928 2841 928 2578 
Q 928 2378 1081 2264 
Q 1234 2150 1697 2047 
L 1894 2003 
Q 2506 1872 2764 1633 
Q 3022 1394 3022 966 
Q 3022 478 2636 193 
Q 2250 -91 1575 -91 
Q 1294 -91 989 -36 
Q 684 19 347 128 
L 347 722 
Q 666 556 975 473 
Q 1284 391 1588 391 
Q 1994 391 2212 530 
Q 2431 669 2431 922 
Q 2431 1156 2273 1281 
Q 2116 1406 1581 1522 
L 1381 1569 
Q 847 1681 609 1914 
Q 372 2147 372 2553 
Q 372 3047 722 3315 
Q 1072 3584 1716 3584 
Q 2034 3584 2315 3537 
Q 2597 3491 2834 3397 
z
" transform="scale(0.015625)"/>
      <path id="DejaVuSans-6e" d="M 3513 2113 
L 3513 0 
L 2938 0 
L 2938 2094 
Q 2938 2591 2744 2837 
Q 2550 3084 2163 3084 
Q 1697 3084 1428 2787 
Q 1159 2491 1159 1978 
L 1159 0 
L 581 0 
L 581 3500 
L 1159 3500 
L 1159 2956 
Q 1366 3272 1645 3428 
Q 1925 3584 2291 3584 
Q 2894 3584 3203 3211 
Q 3513 2838 3513 2113 
z
" transform="scale(0.015625)"/>
      <path id="DejaVuSans-66" d="M 2375 4863 
L 2375 4384 
L 1825 4384 
Q 1516 4384 1395 4259 
Q 1275 4134 1275 3809 
L 1275 3500 
L 2222 3500 
L 2222 3053 
L 1275 3053 
L 1275 0 
L 697 0 
L 697 3053 
L 147 3053 
L 147 3500 
L 697 3500 
L 697 3744 
Q 697 4328 969 4595 
Q 1241 4863 1831 4863 
L 2375 4863 
z
" transform="scale(0.015625)"/>
      <path id="DejaVuSans-44" d="M 1259 4147 
L 1259 519 
L 2022 519 
Q 2988 519 3436 956 
Q 3884 1394 3884 2338 
Q 3884 3275 3436 3711 
Q 2988 4147 2022 4147 
L 1259 4147 
z
M 628 4666 
L 1925 4666 
Q 3281 4666 3915 4102 
Q 4550 3538 4550 2338 
Q 4550 1131 3912 565 
Q 3275 0 1925 0 
L 628 0 
L 628 4666 
z
" transform="scale(0.015625)"/>
      <path id="DejaVuSans-46" d="M 628 4666 
L 3309 4666 
L 3309 4134 
L 1259 4134 
L 1259 2759 
L 3109 2759 
L 3109 2228 
L 1259 2228 
L 1259 0 
L 628 0 
L 628 4666 
z
" transform="scale(0.015625)"/>
      <path id="DejaVuSans-71" d="M 947 1747 
Q 947 1113 1208 752 
Q 1469 391 1925 391 
Q 2381 391 2643 752 
Q 2906 1113 2906 1747 
Q 2906 2381 2643 2742 
Q 2381 3103 1925 3103 
Q 1469 3103 1208 2742 
Q 947 2381 947 1747 
z
M 2906 525 
Q 2725 213 2448 61 
Q 2172 -91 1784 -91 
Q 1150 -91 751 415 
Q 353 922 353 1747 
Q 353 2572 751 3078 
Q 1150 3584 1784 3584 
Q 2172 3584 2448 3432 
Q 2725 3281 2906 2969 
L 2906 3500 
L 3481 3500 
L 3481 -1331 
L 2906 -1331 
L 2906 525 
z
" transform="scale(0.015625)"/>
      <path id="DejaVuSans-63" d="M 3122 3366 
L 3122 2828 
Q 2878 2963 2633 3030 
Q 2388 3097 2138 3097 
Q 1578 3097 1268 2742 
Q 959 2388 959 1747 
Q 959 1106 1268 751 
Q 1578 397 2138 397 
Q 2388 397 2633 464 
Q 2878 531 3122 666 
L 3122 134 
Q 2881 22 2623 -34 
Q 2366 -91 2075 -91 
Q 1284 -91 818 406 
Q 353 903 353 1747 
Q 353 2603 823 3093 
Q 1294 3584 2113 3584 
Q 2378 3584 2631 3529 
Q 2884 3475 3122 3366 
z
" transform="scale(0.015625)"/>
      <path id="DejaVuSans-79" d="M 2059 -325 
Q 1816 -950 1584 -1140 
Q 1353 -1331 966 -1331 
L 506 -1331 
L 506 -850 
L 844 -850 
Q 1081 -850 1212 -737 
Q 1344 -625 1503 -206 
L 1606 56 
L 191 3500 
L 800 3500 
L 1894 763 
L 2988 3500 
L 3597 3500 
L 2059 -325 
z
" transform="scale(0.015625)"/>
      <path id="DejaVuSans-67" d="M 2906 1791 
Q 2906 2416 2648 2759 
Q 2391 3103 1925 3103 
Q 1463 3103 1205 2759 
Q 947 2416 947 1791 
Q 947 1169 1205 825 
Q 1463 481 1925 481 
Q 2391 481 2648 825 
Q 2906 1169 2906 1791 
z
M 3481 434 
Q 3481 -459 3084 -895 
Q 2688 -1331 1869 -1331 
Q 1566 -1331 1297 -1286 
Q 1028 -1241 775 -1147 
L 775 -588 
Q 1028 -725 1275 -790 
Q 1522 -856 1778 -856 
Q 2344 -856 2625 -561 
Q 2906 -266 2906 331 
L 2906 616 
Q 2728 306 2450 153 
Q 2172 0 1784 0 
Q 1141 0 747 490 
Q 353 981 353 1791 
Q 353 2603 747 3093 
Q 1141 3584 1784 3584 
Q 2172 3584 2450 3431 
Q 2728 3278 2906 2969 
L 2906 3500 
L 3481 3500 
L 3481 434 
z
" transform="scale(0.015625)"/>
     </defs>
     <use xlink:href="#DejaVuSans-43"/>
     <use xlink:href="#DejaVuSans-6f" x="69.824219"/>
     <use xlink:href="#DejaVuSans-6d" x="131.005859"/>
     <use xlink:href="#DejaVuSans-70" x="228.417969"/>
     <use xlink:href="#DejaVuSans-61" x="291.894531"/>
     <use xlink:href="#DejaVuSans-72" x="353.173828"/>
     <use xlink:href="#DejaVuSans-69" x="394.287109"/>
     <use xlink:href="#DejaVuSans-73" x="422.070312"/>
     <use xlink:href="#DejaVuSans-6f" x="474.169922"/>
     <use xlink:href="#DejaVuSans-6e" x="535.351562"/>
     <use xlink:href="#DejaVuSans-20" x="598.730469"/>
     <use xlink:href="#DejaVuSans-6f" x="630.517578"/>
     <use xlink:href="#DejaVuSans-66" x="691.699219"/>
     <use xlink:href="#DejaVuSans-20" x="726.904297"/>
     <use xlink:href="#DejaVuSans-44" x="758.691406"/>
     <use xlink:href="#DejaVuSans-75" x="835.693359"/>
     <use xlink:href="#DejaVuSans-61" x="899.072266"/>
     <use xlink:href="#DejaVuSans-6c" x="960.351562"/>
     <use xlink:href="#DejaVuSans-20" x="988.134766"/>
     <use xlink:href="#DejaVuSans-46" x="1019.921875"/>
     <use xlink:href="#DejaVuSans-72" x="1070.191406"/>
     <use xlink:href="#DejaVuSans-65" x="1109.054688"/>
     <use xlink:href="#DejaVuSans-71" x="1170.578125"/>
     <use xlink:href="#DejaVuSans-75" x="1234.054688"/>
     <use xlink:href="#DejaVuSans-65" x="1297.433594"/>
     <use xlink:href="#DejaVuSans-6e" x="1358.957031"/>
     <use xlink:href="#DejaVuSans-63" x="1422.335938"/>
     <use xlink:href="#DejaVuSans-79" x="1477.316406"/>
     <use xlink:href="#DejaVuSans-20" x="1536.496094"/>
     <use xlink:href="#DejaVuSans-53" x="1568.283203"/>
     <use xlink:href="#DejaVuSans-69" x="1631.759766"/>
     <use xlink:href="#DejaVuSans-67" x="1659.542969"/>
     <use xlink:href="#DejaVuSans-6e" x="1723.019531"/>
     <use xlink:href="#DejaVuSans-61" x="1786.398438"/>
     <use xlink:href="#DejaVuSans-6c" x="1847.677734"/>
     <use xlink:href="#DejaVuSans-73" x="1875.460938"/>
    </g>
   </g>
   <g id="PathCollection_1">
    <defs>
     <path id="mcdadd6166a" d="M 0 3 
C 0.795609 3 1.55874 2.683901 2.12132 2.12132 
C 2.683901 1.55874 3 0.795609 3 0 
C 3 -0.795609 2.683901 -1.55874 2.12132 -2.12132 
C 1.55874 -2.683901 0.795609 -3 0 -3 
C -0.795609 -3 -1.55874 -2.683901 -2.12132 -2.12132 
C -2.683901 -1.55874 -3 -0.795609 -3 0 
C -3 0.795609 -2.683901 1.55874 -2.12132 2.12132 
C -1.55874 2.683901 -0.795609 3 0 3 
z
" style="stroke: #0000ff"/>
    </defs>
    <g clip-path="url(#p50526b33eb)">
     <use xlink:href="#mcdadd6166a" x="266.864245" y="66.96" style="fill: #0000ff; stroke: #0000ff"/>
     <use xlink:href="#mcdadd6166a" x="293.019679" y="163.543649" style="fill: #0000ff; stroke: #0000ff"/>
    </g>
   </g>
   <g id="PathCollection_2">
    <defs>
     <path id="m678cb73f55" d="M 0 -3 
L -3 3 
L 3 3 
z
" style="stroke: #ff0000"/>
    </defs>
    <g clip-path="url(#p50526b33eb)">
     <use xlink:href="#m678cb73f55" x="377.907376" y="165.638275" style="fill: #ff0000; stroke: #ff0000"/>
     <use xlink:href="#m678cb73f55" x="404.271636" y="196.475603" style="fill: #ff0000; stroke: #ff0000"/>
    </g>
   </g>
   <g id="PathCollection_3">
    <defs>
     <path id="m8780d06bd5" d="M -3 3 
L 3 3 
L 3 -3 
L -3 -3 
z
" style="stroke: #008000"/>
    </defs>
    <g clip-path="url(#p50526b33eb)">
     <use xlink:href="#m8780d06bd5" x="525.338406" y="174.674679" style="fill: #008000; stroke: #008000"/>
     <use xlink:href="#m8780d06bd5" x="551.546047" y="213.503797" style="fill: #008000; stroke: #008000"/>
    </g>
   </g>
   <g id="legend_1">
    <g id="patch_7">
     <path d="M 602.95 133.230625 
L 770.6 133.230625 
Q 772.6 133.230625 772.6 131.230625 
L 772.6 58.84 
Q 772.6 56.84 770.6 56.84 
L 602.95 56.84 
Q 600.95 56.84 600.95 58.84 
L 600.95 131.230625 
Q 600.95 133.230625 602.95 133.230625 
z
" style="fill: #ffffff; opacity: 0.8; stroke: #cccccc; stroke-linejoin: miter"/>
    </g>
    <g id="line2d_29">
     <path d="M 604.95 64.938437 
L 614.95 64.938437 
L 624.95 64.938437 
" style="fill: none; stroke-dasharray: 5.55,2.4; stroke-dashoffset: 0; stroke: #0000ff; stroke-width: 1.5"/>
    </g>
    <g id="text_29">
     <!-- 300MHz (Low Frequency) -->
     <g transform="translate(632.95 68.438437) scale(0.1 -0.1)">
      <defs>
       <path id="DejaVuSans-4d" d="M 628 4666 
L 1569 4666 
L 2759 1491 
L 3956 4666 
L 4897 4666 
L 4897 0 
L 4281 0 
L 4281 4097 
L 3078 897 
L 2444 897 
L 1241 4097 
L 1241 0 
L 628 0 
L 628 4666 
z
" transform="scale(0.015625)"/>
       <path id="DejaVuSans-48" d="M 628 4666 
L 1259 4666 
L 1259 2753 
L 3553 2753 
L 3553 4666 
L 4184 4666 
L 4184 0 
L 3553 0 
L 3553 2222 
L 1259 2222 
L 1259 0 
L 628 0 
L 628 4666 
z
" transform="scale(0.015625)"/>
       <path id="DejaVuSans-7a" d="M 353 3500 
L 3084 3500 
L 3084 2975 
L 922 459 
L 3084 459 
L 3084 0 
L 275 0 
L 275 525 
L 2438 3041 
L 353 3041 
L 353 3500 
z
" transform="scale(0.015625)"/>
       <path id="DejaVuSans-28" d="M 1984 4856 
Q 1566 4138 1362 3434 
Q 1159 2731 1159 2009 
Q 1159 1288 1364 580 
Q 1569 -128 1984 -844 
L 1484 -844 
Q 1016 -109 783 600 
Q 550 1309 550 2009 
Q 550 2706 781 3412 
Q 1013 4119 1484 4856 
L 1984 4856 
z
" transform="scale(0.015625)"/>
       <path id="DejaVuSans-4c" d="M 628 4666 
L 1259 4666 
L 1259 531 
L 3531 531 
L 3531 0 
L 628 0 
L 628 4666 
z
" transform="scale(0.015625)"/>
       <path id="DejaVuSans-77" d="M 269 3500 
L 844 3500 
L 1563 769 
L 2278 3500 
L 2956 3500 
L 3675 769 
L 4391 3500 
L 4966 3500 
L 4050 0 
L 3372 0 
L 2619 2869 
L 1863 0 
L 1184 0 
L 269 3500 
z
" transform="scale(0.015625)"/>
       <path id="DejaVuSans-29" d="M 513 4856 
L 1013 4856 
Q 1481 4119 1714 3412 
Q 1947 2706 1947 2009 
Q 1947 1309 1714 600 
Q 1481 -109 1013 -844 
L 513 -844 
Q 928 -128 1133 580 
Q 1338 1288 1338 2009 
Q 1338 2731 1133 3434 
Q 928 4138 513 4856 
z
" transform="scale(0.015625)"/>
      </defs>
      <use xlink:href="#DejaVuSans-33"/>
      <use xlink:href="#DejaVuSans-30" x="63.623047"/>
      <use xlink:href="#DejaVuSans-30" x="127.246094"/>
      <use xlink:href="#DejaVuSans-4d" x="190.869141"/>
      <use xlink:href="#DejaVuSans-48" x="277.148438"/>
      <use xlink:href="#DejaVuSans-7a" x="352.34375"/>
      <use xlink:href="#DejaVuSans-20" x="404.833984"/>
      <use xlink:href="#DejaVuSans-28" x="436.621094"/>
      <use xlink:href="#DejaVuSans-4c" x="475.634766"/>
      <use xlink:href="#DejaVuSans-6f" x="529.597656"/>
      <use xlink:href="#DejaVuSans-77" x="590.779297"/>
      <use xlink:href="#DejaVuSans-20" x="672.566406"/>
      <use xlink:href="#DejaVuSans-46" x="704.353516"/>
      <use xlink:href="#DejaVuSans-72" x="754.623047"/>
      <use xlink:href="#DejaVuSans-65" x="793.486328"/>
      <use xlink:href="#DejaVuSans-71" x="855.009766"/>
      <use xlink:href="#DejaVuSans-75" x="918.486328"/>
      <use xlink:href="#DejaVuSans-65" x="981.865234"/>
      <use xlink:href="#DejaVuSans-6e" x="1043.388672"/>
      <use xlink:href="#DejaVuSans-63" x="1106.767578"/>
      <use xlink:href="#DejaVuSans-79" x="1161.748047"/>
      <use xlink:href="#DejaVuSans-29" x="1220.927734"/>
     </g>
    </g>
    <g id="line2d_30">
     <path d="M 604.95 79.616562 
L 614.95 79.616562 
L 624.95 79.616562 
" style="fill: none; stroke: #ff0000; stroke-width: 1.5; stroke-linecap: square"/>
    </g>
    <g id="text_30">
     <!-- 2400MHz (High Frequency) -->
     <g transform="translate(632.95 83.116562) scale(0.1 -0.1)">
      <defs>
       <path id="DejaVuSans-68" d="M 3513 2113 
L 3513 0 
L 2938 0 
L 2938 2094 
Q 2938 2591 2744 2837 
Q 2550 3084 2163 3084 
Q 1697 3084 1428 2787 
Q 1159 2491 1159 1978 
L 1159 0 
L 581 0 
L 581 4863 
L 1159 4863 
L 1159 2956 
Q 1366 3272 1645 3428 
Q 1925 3584 2291 3584 
Q 2894 3584 3203 3211 
Q 3513 2838 3513 2113 
z
" transform="scale(0.015625)"/>
      </defs>
      <use xlink:href="#DejaVuSans-32"/>
      <use xlink:href="#DejaVuSans-34" x="63.623047"/>
      <use xlink:href="#DejaVuSans-30" x="127.246094"/>
      <use xlink:href="#DejaVuSans-30" x="190.869141"/>
      <use xlink:href="#DejaVuSans-4d" x="254.492188"/>
      <use xlink:href="#DejaVuSans-48" x="340.771484"/>
      <use xlink:href="#DejaVuSans-7a" x="415.966797"/>
      <use xlink:href="#DejaVuSans-20" x="468.457031"/>
      <use xlink:href="#DejaVuSans-28" x="500.244141"/>
      <use xlink:href="#DejaVuSans-48" x="539.257812"/>
      <use xlink:href="#DejaVuSans-69" x="614.453125"/>
      <use xlink:href="#DejaVuSans-67" x="642.236328"/>
      <use xlink:href="#DejaVuSans-68" x="705.712891"/>
      <use xlink:href="#DejaVuSans-20" x="769.091797"/>
      <use xlink:href="#DejaVuSans-46" x="800.878906"/>
      <use xlink:href="#DejaVuSans-72" x="851.148438"/>
      <use xlink:href="#DejaVuSans-65" x="890.011719"/>
      <use xlink:href="#DejaVuSans-71" x="951.535156"/>
      <use xlink:href="#DejaVuSans-75" x="1015.011719"/>
      <use xlink:href="#DejaVuSans-65" x="1078.390625"/>
      <use xlink:href="#DejaVuSans-6e" x="1139.914062"/>
      <use xlink:href="#DejaVuSans-63" x="1203.292969"/>
      <use xlink:href="#DejaVuSans-79" x="1258.273438"/>
      <use xlink:href="#DejaVuSans-29" x="1317.453125"/>
     </g>
    </g>
    <g id="PathCollection_4">
     <g>
      <use xlink:href="#mcdadd6166a" x="614.95" y="95.169687" style="fill: #0000ff; stroke: #0000ff"/>
     </g>
    </g>
    <g id="text_31">
     <!-- Target 1 -->
     <g transform="translate(632.95 97.794687) scale(0.1 -0.1)">
      <defs>
       <path id="DejaVuSans-54" d="M -19 4666 
L 3928 4666 
L 3928 4134 
L 2272 4134 
L 2272 0 
L 1638 0 
L 1638 4134 
L -19 4134 
L -19 4666 
z
" transform="scale(0.015625)"/>
      </defs>
      <use xlink:href="#DejaVuSans-54"/>
      <use xlink:href="#DejaVuSans-61" x="44.583984"/>
      <use xlink:href="#DejaVuSans-72" x="105.863281"/>
      <use xlink:href="#DejaVuSans-67" x="145.226562"/>
      <use xlink:href="#DejaVuSans-65" x="208.703125"/>
      <use xlink:href="#DejaVuSans-74" x="270.226562"/>
      <use xlink:href="#DejaVuSans-20" x="309.435547"/>
      <use xlink:href="#DejaVuSans-31" x="341.222656"/>
     </g>
    </g>
    <g id="PathCollection_5">
     <g>
      <use xlink:href="#m678cb73f55" x="614.95" y="109.847812" style="fill: #ff0000; stroke: #ff0000"/>
     </g>
    </g>
    <g id="text_32">
     <!-- Target 2 -->
     <g transform="translate(632.95 112.472812) scale(0.1 -0.1)">
      <use xlink:href="#DejaVuSans-54"/>
      <use xlink:href="#DejaVuSans-61" x="44.583984"/>
      <use xlink:href="#DejaVuSans-72" x="105.863281"/>
      <use xlink:href="#DejaVuSans-67" x="145.226562"/>
      <use xlink:href="#DejaVuSans-65" x="208.703125"/>
      <use xlink:href="#DejaVuSans-74" x="270.226562"/>
      <use xlink:href="#DejaVuSans-20" x="309.435547"/>
      <use xlink:href="#DejaVuSans-32" x="341.222656"/>
     </g>
    </g>
    <g id="PathCollection_6">
     <g>
      <use xlink:href="#m8780d06bd5" x="614.95" y="124.525937" style="fill: #008000; stroke: #008000"/>
     </g>
    </g>
    <g id="text_33">
     <!-- Target 3 -->
     <g transform="translate(632.95 127.150937) scale(0.1 -0.1)">
      <use xlink:href="#DejaVuSans-54"/>
      <use xlink:href="#DejaVuSans-61" x="44.583984"/>
      <use xlink:href="#DejaVuSans-72" x="105.863281"/>
      <use xlink:href="#DejaVuSans-67" x="145.226562"/>
      <use xlink:href="#DejaVuSans-65" x="208.703125"/>
      <use xlink:href="#DejaVuSans-74" x="270.226562"/>
      <use xlink:href="#DejaVuSans-20" x="309.435547"/>
      <use xlink:href="#DejaVuSans-33" x="341.222656"/>
     </g>
    </g>
   </g>
  </g>
 </g>
 <defs>
  <clipPath id="p50526b33eb">
   <rect x="108" y="51.84" width="669.6" height="332.64"/>
  </clipPath>
 </defs>
</svg>
